<svg xmlns="http://www.w3.org/2000/svg" height="205.44" width="949.6"
    xmlns:v="https://vecta.io/nano">
    <path
        d="M100.602 20.264H59.506l1.14 1.999v94.752h-20.69V22.263l1.14-1.999H0V1.429h100.602v18.836m97.752 96.75h-92.04V1.429h92.04v18.836h-73.347l1.997 1.999v25.543l-1.997 1.997h66.499V68.64h-66.499l1.997 1.997V96.18l-1.997 1.997h73.347v18.837M305.469 99.32c-12.413 12.986-27.54 19.122-46.948 19.122-39.525 0-60.076-23.831-60.076-58.505S219.851.002 258.665.002c19.551 0 34.391 5.992 46.663 18.693l-14.841 14.983c-8.133-10.131-17.267-14.84-31.679-14.84-27.541 0-39.243 17.837-39.243 41.099 0 22.688 10.988 39.67 39.1 39.67 14.412 0 23.688-4.709 31.964-14.984l14.84 14.698m105.289 17.694h-17.695l-56.224-70.209-7.133-12.557h-.287v82.767h-20.692V1.429h17.696l56.223 70.065 7.135 12.7h.285V1.429h20.692v115.587m64.617-98.178c-25.972 0-36.673 17.551-36.673 41.099 0 22.83 10.701 39.67 36.673 39.67 26.115 0 36.532-16.839 36.532-39.67s-10.417-41.099-36.532-41.099zm-.141 99.604c-37.816 0-57.652-23.973-57.652-58.505S437.418.002 475.233.002c38.099 0 57.791 25.257 57.791 59.935 0 34.532-20.404 58.505-57.791 58.505"
        fill="#404352" />
    <path
        d="M594.277 20.264h-37.672l1.997 1.999v32.249l-1.997 1.999h37.529c14.555 0 20.691-7.564 20.691-18.124 0-11.131-6.136-18.123-20.548-18.123zm-.143 55.082h-37.529l1.997 1.998v39.67h-20.691V1.429h56.365c26.4 0 41.668 15.411 41.668 36.959 0 20.693-15.127 36.96-41.811 36.96m100.075-4.71l-1.999-1.855-15.127-32.395-2.853-9.56h-.287l-3.283 9.56-15.124 32.395-1.999 1.855zm43.236 46.377h-22.688l-11.988-25.686 1.143-1.856h-59.935l1.143 1.856-11.988 25.686h-22.689l53.94-115.586h19.121l53.94 115.587m94.988-17.696c-12.413 12.986-27.54 19.122-46.948 19.122-39.528 0-60.076-23.831-60.076-58.505S746.811.002 785.627.002c19.548 0 34.391 5.992 46.663 18.693l-14.841 14.983c-8.135-10.131-17.267-14.84-31.679-14.84-27.541 0-39.243 17.837-39.243 41.099 0 22.688 10.988 39.67 39.1 39.67 14.412 0 23.687-4.709 31.964-14.984l14.84 14.698m114.22 17.694h-29.968l-57.079-58.363L915.399 1.57h29.397l-57.793 57.083v.283zm-88.33 0H837.63V1.429h20.691v115.587"
        fill="#2e9650" />
    <path
        d="M676.013 204.701h-12.068v-6.321c-3.94 4.186-11.74 7.06-19.373 7.06-22.493 0-35.464-13.135-35.464-33.493 0-20.771 13.299-34.644 35.956-34.644 10.672 0 20.688 3.203 27.501 10.261l-9.604 9.688c-4.68-5.417-10.837-7.553-17.897-7.553-14.859 0-21.755 8.128-21.755 22.248 0 13.462 6.568 21.097 21.263 21.097 10.261 0 17.403-5.992 18.307-14.201l1.395-1.315h-23.068v-12.396h34.808v39.569m40.382-54.098h-19.537l1.312 1.232v14.529l-1.312 1.313h18.716c8.537 0 12.068-4.106 12.068-8.455 0-5.664-3.941-8.62-11.247-8.62zm32.672 54.018h-15.68l-9.112-17.568c-2.708-5.172-6.485-7.472-14.201-7.472h-13.216l1.312 1.232v23.808h-13.956v-66.496h32.181c13.216 0 25.448 6.568 25.448 20.771 0 7.059-5.419 13.461-11.328 16.171v.165c2.216.985 4.924 3.447 6.731 6.895l11.821 22.495m32.583-54.841c-14.12 0-20.029 9.195-20.029 22.001 0 12.395 5.909 21.179 20.029 21.179 14.284 0 20.032-8.784 20.032-21.179 0-12.479-5.748-22.001-20.032-22.001zm0 55.659c-22.411 0-34.232-13.874-34.232-33.657s11.821-34.48 34.232-34.48c22.576 0 34.233 14.696 34.233 34.48s-12.149 33.657-34.233 33.657m101.707-31.441c0 19.867-10.016 31.441-31.196 31.441-21.261 0-31.359-11.41-31.359-31.441v-35.875h13.955v35.792c0 12.56 4.599 19.045 17.323 19.045 12.56 0 17.321-6.485 17.321-19.045v-35.792h13.956v35.875m41.202-23.396h-20.769l1.313 1.232v15.761l-1.313 1.312h20.769c7.8 0 10.836-3.858 10.836-9.194 0-5.582-3.036-9.112-10.836-9.112zm0 30.784h-20.769l1.313 1.232v22.001h-13.956v-66.496h33.412c15.761 0 25.039 8.948 25.039 21.591 0 12.149-9.277 21.672-25.039 21.672"
        fill="#404352" />
</svg>